{"title":"The.Boondock.Saints.II.All.Saints.Day.Directors.Cut.2009.1080p.B","uid":9694439,"size":4261679965,"categoryP":"video","categoryS":"hd___movies","magnet":"?xt=urn:btih:535a98e05e618b43caaf66cc7fd7fb1bc5420eee&amp;dn=The.Boondock.Saints.II.All.Saints.Day.Directors.Cut.2009.1080p.B&amp;tr=udp%3A%2F%2Ftracker.openbittorrent.com%3A80&amp;tr=udp%3A%2F%2Fopen.demonii.com%3A1337&amp;tr=udp%3A%2F%2Ftracker.coppersurfer.tk%3A6969&amp;tr=udp%3A%2F%2Fexodus.desync.com%3A6969","seeders":1,"leechers":1,"uploader":"thegame2012","files":-1,"time":1393914645,"description":"The.Boondock.Saints.II.All.Saints.Day.Directors.Cut.2009.1080p.BRRip.x264.AC3-Kay\n\nDirector's Extended Cut with 2 Audio Commentaries. The first with Writer/Director Troy Duffy, and Actors Sean Patrick Flanery, Norman Reedus, and Billy Connolly. The Second Commentary features Try Duffy again, and Actor Willem Dafoe.\n\n\n\nGeneral\nFormat                           : Matroska\nFile size                        : 3.94 GiB\nDuration                         : 2h 18mn\nOverall bit rate                 : 4 089 Kbps\n\n\nVideo\nID                               : 1\nFormat                           : AVC\nFormat/Info                      : Advanced Video Codec\nFormat profile                   : &lt;a class=&quot;__cf_email__&quot; href=&quot;/cdn-cgi/l/email-protection&quot; data-cfemail=&quot;9cd4f5fbf4dcd0a9b2ac&quot;&gt;[email&amp;#160;protected]&lt;/a&gt;&lt;script cf-hash='f9e31' type=&quot;text/javascript&quot;&gt;\n/* &lt;![CDATA[ */!function(){try{var t=&quot;currentScript&quot;in document?document.currentScript:function(){for(var t=document.getElementsByTagName(&quot;script&quot;),e=t.length;e--;)if(t[e].getAttribute(&quot;cf-hash&quot;))return t[e]}();if(t&amp;&amp;t.previousSibling){var e,r,n,i,c=t.previousSibling,a=c.getAttribute(&quot;data-cfemail&quot;);if(a){for(e=&quot;&quot;,r=parseInt(a.substr(0,2),16),n=2;a.length-n;n+=2)i=parseInt(a.substr(n,2),16)^r,e+=String.fromCharCode(i);e=document.createTextNode(e),c.parentNode.replaceChild(e,c)}}}catch(u){}}();/* ]]&gt; */&lt;/script&gt;\nFormat settings, CABAC           : Yes\nDuration                         : 2h 17mn\nBit rate                         : 3 175 Kbps\nNominal bit rate                 : 3 250 Kbps\nWidth                            : 1 920 pixels\nHeight                           : 816 pixels\nDisplay aspect ratio             : 2.35:1\nFrame rate                       : 23.976 fps\nResolution                       : 8 bits\nColorimetry                      : 4:2:0\nScan type                        : Progressive\nBits/(Pixel*Frame)               : 0.085\nStream size                      : 3.06 GiB (78%)\nWriting library                  : x264 core 133 r2334 a3ac64b\n\n\nAudio #1\nID                               : 2\nFormat                           : AC-3\nFormat/Info                      : Audio Coding 3\nCodec ID                         : A_AC3\nDuration                         : 2h 18mn\nBit rate mode                    : Constant\nBit rate                         : 448 Kbps\nChannel(s)                       : 6 channels\nChannel positions                : Front: L C R, Surround: L R, LFE\nSampling rate                    : 48.0 KHz\nStream size                      : 442 MiB (11%)\nLanguage                         : English\n\nAudio #2\nID                               : 3\nFormat                           : AC-3\nFormat/Info                      : Audio Coding 3\nFormat profile                   : Dolby Digital\nCodec ID                         : A_AC3\nDuration                         : 2h 18mn\nBit rate mode                    : Constant\nBit rate                         : 192 Kbps\nChannel(s)                       : 2 channels\nChannel positions                : L R\nSampling rate                    : 48.0 KHz\nStream size                      : 190 MiB (5%)\nLanguage                         : English\n\nAudio #3\nID                               : 4\nFormat                           : AC-3\nFormat/Info                      : Audio Coding 3\nFormat profile                   : Dolby Digital\nCodec ID                         : A_AC3\nDuration                         : 2h 18mn\nBit rate mode                    : Constant\nBit rate                         : 192 Kbps\nChannel(s)                       : 2 channels\nChannel positions                : L R\nSampling rate                    : 48.0 KHz\nStream size                      : 190 MiB (5%)\nLanguage                         : English\n\n\nSample included. Please rate/comment/seed!\n\nThanks!\n\n-Kay\n","torrent":{"xt":"urn:btih:535a98e05e618b43caaf66cc7fd7fb1bc5420eee","amp;dn":"The.Boondock.Saints.II.All.Saints.Day.Directors.Cut.2009.1080p.B","amp;tr":["udp%3A%2F%2Ftracker.openbittorrent.com%3A80","udp%3A%2F%2Fopen.demonii.com%3A1337","udp%3A%2F%2Ftracker.coppersurfer.tk%3A6969","udp%3A%2F%2Fexodus.desync.com%3A6969"],"infoHash":"535a98e05e618b43caaf66cc7fd7fb1bc5420eee","infoHashBuffer":{"type":"Buffer","data":[83,90,152,224,94,97,139,67,202,175,102,204,127,215,251,27,197,66,14,238]},"announce":[],"urlList":[]}}